<?xml version="1.0" encoding="UTF-8"?>
<svg id="Layer_1" data-name="Layer 1" xmlns="http://www.w3.org/2000/svg" viewBox="0 0 878.74 1162.2">
  <defs>
    <style>
      .cls-1 {
        fill: #383836;
      }

      .cls-2 {
        fill: #f9e560;
      }
    </style>
  </defs>
  <path class="cls-1" d="M631.88,711.54c-2.02-.02-5.07-.1-6.52,1.04l-8.54,53.31c-.52,3.23-2.9,5.35-5.87,6.23-25.23,7.54-48.4,18.15-72.17,29.45l-58.43,27.78c-31.18,14.82-63.96,22.76-98.3,27l-58.2-16.07c-4.3-1.19-6.07-6.84-4.58-10.51,1.66-8.08-3.23-15.22-10.31-17.19-7.48-2.08-15.33,1.7-17.6,9.6-1.42,4.95-5.72,7.89-11.01,6.44l-42.24-11.52c-3.59-.98-6.11-3.94-6.49-7.58l-3.59-41.96-4.05-55.83-125.61-.42c-9.52-.03-18.31-10.29-18.32-19.51l-.16-170.34c-.01-11.09,7.67-22.39,19.85-22.42l163.99-.49c-9.12-6-20.83-7.68-31.53-4.68-3.23.91-5.74.52-8.07-.92-2.74-1.68-4.02-4.94-3.85-8.55l1.75-37c1-21.19,2.78-41.72,6.43-62.5.58-3.29,4.06-5.13,6.74-6.53,26.02-16.14,51.9-30.76,80.04-43.09,25.56-11.19,50.76-20.58,76.84-29.39,29.83,9.15,56.39,21.27,82.93,36.21l65.06,36.64c26.34,14.84,53,26.44,81.75,35.41,3.89,1.51,6.1,9.17,6.13,12.81l.37,47.78c-6.35,7.76-20.78,4.45-32.62,10.57-5.41,2.8-9.2,8.09-12.12,13.4l191.8-.08c12.57,0,23.49,8.66,23.48,21.93l-.04,170.34c0,11.07-9.5,20.61-19.54,20.68l-19.09.15-.06-13.11,15.55-.07c3.51-.02,9.51-2.54,9.51-7.34l.18-169.65c0-5.38-3.17-9.14-8.96-9.14l-208.14-.09-466.12.08c-5.06,0-8.73,3.19-8.72,8.01l.07,170.74c0,4.07,4.56,7.35,8.72,7.35l529.38.02.29,13.04ZM566.22,498.81c6.39-21.2,24.09-33.35,45.41-35.01l-.37-35.92c-26.19-7.9-50.41-19.37-74.8-32.3l-60.52-34.18c-25.37-14.33-50.73-27.07-78.31-36.45-11.75,58.06-19.47,115.05-22.83,173.95l55.32-.09c-13.89-22.28-8.69-49.65,11.61-65.12,19.32-14.72,48-12.82,64.56,6.22,8.14,9.36,11.94,20.55,12.96,32.78.08,9.26-2.54,17.78-7.49,26.18l54.47-.07ZM237.93,475.85c21.46-1.8,38.75,7.47,50.89,22.76l69.43.11c3-57.53,10.16-113.18,20.74-170.39-26.79,9.21-51.17,19.22-75.49,30.82,13.72,8.94,17.79,23.46,12.21,37.02-5.48,13.31-19.41,20.7-34.4,17.13-12.64-3.01-22.69-14.79-22.2-29.73l-15,9.11c-3.55,27.7-6.17,55.07-6.2,83.17ZM371.19,835.08c-6.89-42.52-10.48-82.23-13.25-123.28l-77.62.05c-.92,6.92-5.42,11.15-11.6,10.9-5.73-.23-10.15-4.25-10.35-10.93l-17.37.46,6.91,89.8,29.99,8.23c7.69-12.59,22.07-18.03,35.66-14.31,13.37,3.66,22.68,15.52,22.96,30.4l34.69,8.68ZM539.12,782.16c20.89-10.17,40.65-18.92,62.36-25.15l6.8-45.31-34.65.12c-5.1,12.81-16.65,20.55-29.69,20.51-12.87-.04-24.63-7.64-29.9-20.46l-138.87-.1c2.79,42.72,7.72,84.48,14.8,126.37,21.57-4.26,42.06-8.43,63.07-16.74-19.06-2.99-31.09-20.01-27.65-38.2,3.4-17.97,20.96-29.79,39.47-25.22,10.77,2.66,18.8,11.38,21.81,19.88,4.17,11.78,1.74,21.99-4.7,32.13l57.15-27.83Z"/>
  <path class="cls-1" d="M381.85,660.29l-15.64.52-18.71-72.8-.88,72.53-13.79.21.03-108.12h19.24s15.08,58.52,15.08,58.52l1.31-58.15c3.95-.91,8.49-.49,13.32-.32l.03,107.61Z"/>
  <path class="cls-1" d="M238.53,660.23c-4.91,1.09-9.84.47-15.57.42l-19.08-74.9-.41,74.69-13.93.19-.07-108.04,19.32-.15,15.22,57.53,1.26-57.37,13.2.07.06,107.55Z"/>
  <path class="cls-1" d="M524.21,667.24c-6.43.8-12.55-1.19-15.98-7.09-8.37,2.37-17.39,2.96-24.89-2.3-5.39-3.78-9.13-11.13-9.12-18.19l.11-66.29c.02-13.59,10.7-22.17,23.51-22.06,13.32.11,22.85,9.24,22.94,22.89l.37,60.81c.03,5.49-1.07,10.49-3.06,15.58,1.98,1.18,3.6,1.33,5.98,1.62l.14,15.04ZM505.57,636.84l-.13-61.52c-.01-5.14-3.53-8.55-8.12-8.46-3.32.07-7.6,2.88-7.6,7.51l-.02,64.03c0,5.64,4.17,8.37,8.78,7.84,4.25-.48,7.1-3.63,7.09-9.4Z"/>
  <path class="cls-1" d="M154.72,662.01c-13.57.67-24.47-7.93-24.49-21.72l-.08-66.9c-.01-13.28,10.45-22.07,23.16-22.1,12.68-.03,23.24,8.84,23.23,22.14l-.04,66.87c0,12.63-9.55,21.11-21.78,21.71ZM161.16,637.62l-.09-63.03c0-4.83-4.28-8.04-8.3-7.75-3.53.25-7.22,3.31-7.22,7.77l-.05,63.54c0,5.65,3.47,8.35,8.41,8.13,4.23-.19,7.26-2.93,7.26-8.67Z"/>
  <path class="cls-1" d="M724.76,662.04c-13.42-.3-22.79-9.42-22.8-22.99l-.04-64.19c0-14.44,10.49-24.14,24.51-23.55,12.77.53,22.29,9.72,22.28,23.14l-.06,64.83c-.01,13.97-10.27,23.06-23.89,22.76ZM733.41,637.8l-.04-62.16c0-5.35-4.18-9.21-8.7-8.83-4.2.36-7.35,4.07-7.34,9l.1,62.3c0,5.62,3.54,8.48,8.38,8.19,3.9-.23,7.61-2.77,7.6-8.5Z"/>
  <path class="cls-1" d="M678.4,670.03l-20.18.32-.1-10.12c-12.06-5.73-13.75-18.36-12.84-32.25l14.24-.02.33,10.2c.16,5.06,3.24,7.79,7.35,8.03,5.12.29,8.11-2.82,8.58-8.24.6-6.89-1.79-13.57-6.67-18.61l-12.3-12.72c-14.55-15.04-16.48-43.71,1.27-53.26l.16-10.4,20.01.08c-.11,3.83-.4,6.94.41,10.38,10.67,5.47,13.34,16.5,12.49,28.64h-14.6s-.33-7.94-.33-7.94c-.18-4.35-3.1-6.93-6.78-7.24-3.56-.3-6.97,1.95-7.81,6.02-1.51,7.35.22,14.59,5.3,19.96l12.19,12.9c11.48,12.16,15.69,28.54,9.49,44.23-1.91,4.85-5.82,7.46-9.87,10.51-1.07,1.87-.65,5.59-.34,9.52Z"/>
  <path class="cls-1" d="M564.84,552.87l14.57-.18-.76,89.94c-.11,12.69-11.14,19.44-22.12,19.52-11.67.09-22.57-7.14-22.64-20.15l-.53-89.31,14.94-.02.44,84.86c.03,5.1,2.99,8.32,7.11,8.76,4.89.52,8.38-2.33,9.01-7.85v-85.56Z"/>
  <polygon class="cls-1" points="629.53 613.48 608.54 613.61 608.4 644.84 634.89 645.13 634.89 660.74 592.76 660.68 592.68 552.55 635.13 552.52 635.15 568.03 608.54 568.13 608.37 598.04 629.47 598.03 629.53 613.48"/>
  <polygon class="cls-1" points="433.01 613.51 411.48 613.54 411.37 644.94 438.03 645.01 437.95 660.75 396.1 660.59 396.07 552.54 437.99 552.53 437.98 568.06 411.45 568.08 411.31 598 432.97 598.04 433.01 613.51"/>
  <path class="cls-1" d="M293.18,644.87c.85,5.15.64,9.99.26,15.79l-40.85-.08v-107.94s15.58-.01,15.58-.01l-.03,92.24h25.04Z"/>
  <path class="cls-1" d="M318.95,660.16c-4.68,1.18-9.85.58-15.78.5l-.07-108.01,15.4.02.44,107.5Z"/>
  <path class="cls-1" d="M738.99,720.57l-.77-17.73-4.4,8.05c-.78,1.42-4.28,2.32-5.2.79l-4.81-7.98-.67,16.62c-2.69.87-5.13.87-8.34-.01l.23-33.64c.01-2.04,6.79-2.11,7.75-.32l8.04,15.12,8.59-15.26c.94-1.66,5.21-1.16,7.24-.56l.12,34.55c-2.13.95-4.41,1.01-7.76.37Z"/>
  <path class="cls-1" d="M706.98,689.96c3.94,5.21,4.06,21.68-.15,26.57-2.58,3-6.53,4.94-11.64,4.79-5.15-.15-10.89-2.27-12.78-7.53-2.14-5.95-2.1-13.18-.61-19.17,1.75-7.04,7.98-9.94,14.67-9.51,4.69.3,8.32,1.94,10.52,4.84ZM700.44,697.04c-.55-2.68-2.42-4.4-4.61-4.52-2.01-.11-4.72,1.1-5.25,3.74-1.86,9.26-.88,17.76,5.11,17.29,5.56-.44,6.41-8.4,4.74-16.51Z"/>
  <path class="cls-1" d="M658.49,710.83c.61,2.8,4.18,3.09,6.17,2.61,1.93-.46,2.77-2.34,4.3-4.36,1.36-1.8,7.12-1.7,8.45-.07.24,7.37-6.42,11.99-13.18,12.32-7.99.4-15.49-3.85-15.43-12.24l.1-12.6c.07-8.31,7.6-11.71,15.31-11.42,7.06.26,13.68,4.71,13.08,12.51-1.33,1.53-7.02,1.72-8.3-.07-1.64-2.3-2.27-4.34-4.55-4.88-2.41-.58-5.68.44-6.16,3.63-.67,4.51-.9,9.54.2,14.57Z"/>
  <path class="cls-1" d="M644.47,720.36c-2.69.8-4.79.74-7.57.36-.61-2.98-.63-5.69-.24-8.94l7.79.04.02,8.53Z"/>
  <path class="cls-2" d="M566.22,498.81l-54.47.07c4.96-8.4,7.58-16.91,7.49-26.18-1.02-12.23-4.83-23.43-12.96-32.78-16.56-19.04-45.24-20.95-64.56-6.22-20.29,15.47-25.5,42.83-11.61,65.12l-55.32.09c3.36-58.9,11.08-115.9,22.83-173.95,27.59,9.37,52.94,22.12,78.31,36.45l60.52,34.18c24.39,12.93,48.61,24.4,74.8,32.3l.37,35.92c-21.32,1.65-39.02,13.8-45.41,35.01Z"/>
  <path class="cls-2" d="M237.93,475.85c.04-28.1,2.65-55.47,6.2-83.17l15-9.11c-.49,14.93,9.56,26.71,22.2,29.73,14.99,3.57,28.92-3.82,34.4-17.13,5.58-13.56,1.5-28.08-12.21-37.02,24.32-11.6,48.69-21.6,75.49-30.82-10.59,57.21-17.75,112.87-20.74,170.39l-69.43-.11c-12.14-15.29-29.44-24.56-50.89-22.76Z"/>
  <path class="cls-2" d="M371.19,835.08l-34.69-8.68c-.28-14.88-9.59-26.74-22.96-30.4-13.59-3.72-27.98,1.72-35.66,14.31l-29.99-8.23-6.91-89.8,17.37-.46c.2,6.68,4.62,10.7,10.35,10.93,6.18.25,10.68-3.97,11.6-10.9l77.62-.05c2.77,41.05,6.37,80.76,13.25,123.28Z"/>
  <path class="cls-2" d="M539.12,782.16l-57.15,27.83c6.44-10.14,8.87-20.35,4.7-32.13-3.01-8.51-11.05-17.23-21.81-19.88-18.5-4.57-36.07,7.26-39.47,25.22-3.44,18.2,8.59,35.21,27.65,38.2-21.01,8.31-41.5,12.48-63.07,16.74-7.08-41.89-12.01-83.65-14.8-126.37l138.87.1c5.28,12.82,17.03,20.42,29.9,20.46,13.04.04,24.59-7.7,29.69-20.51l34.65-.12-6.8,45.31c-21.71,6.23-41.47,14.98-62.36,25.15Z"/>
</svg>